<?xml version="1.0" standalone="no"?>
<svg xmlns="http://www.w3.org/2000/svg" viewBox="0 0 151 63" width="151" height="63"><g fill="#fea701" color="#fea701" transform="translate(60.554 0) scale(0.5740741) "><svg width="51.0" height="54.0" x="0.0" y="0.0" viewBox="0 0 51 54"><path fill="currentColor" fill-rule="evenodd" d="M28.58 14.169c5.536 1.088 7.414 1.494 7.385 1.577-.028.065 1.047 3.32 2.396 7.241 1.349 3.911 2.452 7.14 2.452 7.168 0 .036-.085.101-.179.147-.104.055-2.32 2.454-4.923 5.35-2.604 2.897-4.877 5.415-5.056 5.618-.245.258-.35.323-.406.24-.047-.074-3.084-.71-7.659-1.615l-7.574-1.494.02-.221c.018-.12-1.076-3.395-2.406-7.278-2.113-6.125-2.415-7.066-2.283-7.122.085-.027 2.443-2.592 5.226-5.682 5.055-5.599 5.074-5.617 5.32-5.507.141.065 3.593.775 7.687 1.578M22.175.129c-.028.074-.34 2.63-.679 5.692-.5 4.353-.66 5.571-.773 5.626-.076.047-4.707 1.098-10.281 2.343C4.867 15.036.245 16.087.17 16.124c-.075.046-.15.12-.17.175-.019.056 2.085 1.624 4.688 3.497 2.594 1.863 4.707 3.44 4.688 3.496-.16.396-6.197 19.721-6.197 19.823 0 .074.056.147.123.166.056.027 2.508-.978 5.442-2.242 2.933-1.254 5.357-2.26 5.386-2.223 1.264 1.365 14.299 15.045 14.403 15.119.094.065.207.083.264.046.056-.037.368-2.398.735-5.691.35-3.1.67-5.655.698-5.683.038-.027.66-.184 1.387-.34 3.207-.711 19.072-4.272 19.223-4.318a.241.241 0 0 0 .16-.212c0-.102-1.585-1.291-4.546-3.432-2.5-1.789-4.603-3.311-4.679-3.366-.103-.074.387-1.753 2.934-9.87 1.688-5.37 3.093-9.88 3.131-10.009.038-.166.02-.258-.075-.295-.076-.028-2.5.968-5.386 2.204-2.886 1.237-5.291 2.26-5.33 2.279-.046.01-3.065-3.118-6.705-6.946C22.514.074 22.439 0 22.317 0c-.047 0-.113.055-.142.13"></path></svg></g><line x1="61.43144444444444" y1="37" x2="88.95255555555555" y2="37" stroke="#fe4e01" stroke-linecap="round"></line><path fill="#fe4e01" fill-rule="nonzero" d="M10.22 1.85L13.56 1.85L13.56 17.21Q13.56 18 13.08 18.56Q12.60 19.13 11.95 19.13L11.95 19.13Q10.30 19.13 9.24 17.21L9.24 17.21L3.34 7.97L3.34 18.94L0 18.94L0 1.85L3.22 1.85L10.22 13.03L10.22 1.85ZM27.55 15.96L27.55 18.94L22.46 18.94Q19.58 18.94 18.30 17.82Q17.02 16.70 17.02 14.18L17.02 14.18L17.02 1.85L20.35 1.85L20.35 14.18Q20.35 15.19 20.81 15.58Q21.26 15.96 22.46 15.96L22.46 15.96L27.55 15.96ZM46.90 1.85L46.90 4.82L42.31 4.82L42.31 18.94L38.98 18.94L38.98 4.82L34.42 4.82L34.42 1.85L46.90 1.85ZM56.66 12.74L56.66 12.74L56.66 11.50Q56.66 9.72 56.15 8.78Q55.63 7.85 54 7.85L54 7.85Q51.36 7.85 51.36 11.40L51.36 11.40L51.36 12.65Q51.36 16.46 54 16.46L54 16.46Q55.70 16.46 56.23 15.19L56.23 15.19Q56.66 14.18 56.66 12.74ZM59.78 12.02L59.78 12.02Q59.78 16.46 58.10 17.98L58.10 17.98Q56.69 19.27 54 19.27L54 19.27Q50.57 19.27 49.37 17.26L49.37 17.26Q48.24 15.41 48.24 12.02L48.24 12.02Q48.24 8.86 49.37 7.06L49.37 7.06Q50.62 5.04 53.92 5.04Q57.22 5.04 58.50 6.80Q59.78 8.57 59.78 12.02ZM72.53 5.23L72.53 18.94L70.20 18.94L69.48 17.30L65.64 19.08Q64.03 19.08 62.84 17.89Q61.66 16.70 61.66 14.42L61.66 14.42L61.66 5.23L64.78 5.23L64.78 13.75Q64.78 16.03 66.60 16.03L66.60 16.03L69.41 14.52L69.41 5.23L72.53 5.23ZM83.30 5.28L83.30 5.28L82.44 8.35Q82.08 8.21 81.62 8.21L81.62 8.21Q80.42 8.21 78.67 9.24L78.67 9.24L78.67 18.94L75.55 18.94L75.55 5.23L77.88 5.23L78.60 6.43L81.91 5.06Q82.15 5.04 82.56 5.04Q82.97 5.04 83.30 5.28ZM90.14 10.90L90.14 10.90L90.14 8.78Q90.14 5.45 91.90 3.58Q93.65 1.70 96.74 1.70Q99.84 1.70 101.71 3.58L101.71 3.58Q103.03 4.90 103.03 7.54L103.03 7.54L99.91 7.54Q99.91 4.68 96.86 4.68L96.86 4.68Q95.95 4.68 95.32 5.03Q94.68 5.38 94.37 5.83Q94.06 6.29 93.89 7.18Q93.72 8.06 93.70 8.66Q93.67 9.26 93.67 10.27Q93.67 11.28 93.68 11.63Q93.70 11.98 93.76 12.76Q93.82 13.54 93.95 13.87Q94.08 14.21 94.33 14.74Q94.58 15.26 94.97 15.48L94.97 15.48Q95.95 16.10 97.20 16.10L97.20 16.10Q99.29 16.10 100.15 14.33L100.15 14.33L100.15 13.18L98.09 13.18L98.09 10.39L103.01 10.39L103.01 15.55Q102.26 17.30 100.66 18.19Q99.05 19.08 97.01 19.08L97.01 19.08Q93.38 19.08 91.76 17.05Q90.14 15.02 90.14 10.90ZM116.50 5.23L116.50 18.94L114.17 18.94L113.45 17.30L109.61 19.08Q108 19.08 106.81 17.89Q105.62 16.70 105.62 14.42L105.62 14.42L105.62 5.23L108.74 5.23L108.74 13.75Q108.74 16.03 110.57 16.03L110.57 16.03L113.38 14.52L113.38 5.23L116.50 5.23ZM121.58 0Q122.71 0 123.05 0.35Q123.38 0.70 123.38 1.81Q123.38 2.93 123.04 3.28Q122.69 3.62 121.57 3.62Q120.46 3.62 120.11 3.26Q119.76 2.90 119.76 1.80Q119.76 0.70 120.11 0.35Q120.46 0 121.58 0ZM123.12 5.74L123.12 18.94L120.00 18.94L120.00 5.74L123.12 5.74ZM136.56 0.89L136.56 18.94L134.47 18.94L133.51 17.28L130.18 19.08Q127.39 19.08 126.43 17.06L126.43 17.06Q125.95 16.08 125.77 14.94Q125.59 13.80 125.59 12.56Q125.59 11.33 125.62 10.74Q125.64 10.15 125.74 9.37Q125.83 8.59 126.01 8.06Q126.19 7.54 126.53 6.97Q126.86 6.41 127.34 6.07L127.34 6.07Q128.42 5.33 130.15 5.33L130.15 5.33L133.44 5.33L133.44 0.89L136.56 0.89ZM131.06 15.79L133.44 14.57L133.44 8.14L131.06 8.14Q129.74 8.14 129.23 9.14Q128.71 10.15 128.71 12.16Q128.71 14.16 129.20 14.98Q129.70 15.79 131.06 15.79L131.06 15.79ZM150.34 12.82L150.34 12.82L142.34 12.82Q142.34 14.69 142.93 15.55Q143.52 16.42 145.30 16.42L145.30 16.42Q146.45 16.42 147.00 15.68Q147.55 14.95 147.55 14.28L147.55 14.28L150.36 14.28Q150.36 16.85 148.98 18.05Q147.60 19.25 145.33 19.25Q143.06 19.25 141.82 18.60L141.82 18.60Q139.25 17.28 139.25 11.59L139.25 11.59Q139.25 8.21 140.71 6.64Q142.18 5.06 145.18 5.06L145.18 5.06Q150.38 5.06 150.38 10.85L150.38 10.85Q150.38 11.47 150.34 12.82ZM142.42 10.68L142.42 10.68L147.55 10.68Q147.55 9.10 146.95 8.38Q146.35 7.66 145.12 7.66Q143.88 7.66 143.15 8.39Q142.42 9.12 142.42 10.68Z" transform="translate(0, 43)"></path></svg>